HIERARCHY
ROOT Hip
{
    OFFSET 0.0 0.0 0.0
    CHANNELS 6 Xposition Yposition Zposition Zrotation Xrotation Yrotation
    JOINT RightHip
    {
        OFFSET -10.091033935546875 0.0 0.0
        CHANNELS 3 Zrotation Xrotation Yrotation
        JOINT RightKnee
        {
            OFFSET 0.0 0.0 -33.60024642944336
            CHANNELS 3 Zrotation Xrotation Yrotation
            JOINT RightAnkle
            {
                OFFSET 0.0 0.0 -38.23712158203125
                CHANNELS 3 Zrotation Xrotation Yrotation
                End Site
                {
                    OFFSET 0.0 -15.294848442077637 0.0
                }
            }
        }
    }
    JOINT LeftHip
    {
        OFFSET 10.091033935546875 0.0 0.0
        CHANNELS 3 Zrotation Xrotation Yrotation
        JOINT LeftKnee
        {
            OFFSET 0.0 0.0 -33.60024642944336
            CHANNELS 3 Zrotation Xrotation Yrotation
            JOINT LeftAnkle
            {
                OFFSET 0.0 0.0 -38.23712158203125
                CHANNELS 3 Zrotation Xrotation Yrotation
                End Site
                {
                    OFFSET 0.0 -15.294848442077637 0.0
                }
            }
        }
    }
    JOINT Spine
    {
        OFFSET 0.0 0.0 38.4281005859375
        CHANNELS 3 Zrotation Xrotation Yrotation
        JOINT Thorax
        {
            OFFSET 0.0 0.0 12.416765213012695
            CHANNELS 3 Zrotation Xrotation Yrotation
            JOINT Neck
            {
                OFFSET 0.0 0.0 0.0
                CHANNELS 3 Zrotation Xrotation Yrotation
                End Site
                {
                    OFFSET 0.0 0.0 0.0
                }
            }
            JOINT LeftShoulder
            {
                OFFSET 18.142192840576172 0.0 0.0
                CHANNELS 3 Zrotation Xrotation Yrotation
                JOINT LeftElbow
                {
                    OFFSET 28.145450592041016 0.0 0.0
                    CHANNELS 3 Zrotation Xrotation Yrotation
                    JOINT LeftWrist
                    {
                        OFFSET 22.194902420043945 0.0 0.0
                        CHANNELS 3 Zrotation Xrotation Yrotation
                        End Site
                        {
                            OFFSET 8.877960205078125 0.0 0.0
                        }
                    }
                }
            }
            JOINT RightShoulder
            {
                OFFSET -18.142192840576172 0.0 0.0
                CHANNELS 3 Zrotation Xrotation Yrotation
                JOINT RightElbow
                {
                    OFFSET -28.145450592041016 0.0 0.0
                    CHANNELS 3 Zrotation Xrotation Yrotation
                    JOINT RightWrist
                    {
                        OFFSET -22.194902420043945 0.0 0.0
                        CHANNELS 3 Zrotation Xrotation Yrotation
                        End Site
                        {
                            OFFSET -8.877960205078125 0.0 0.0
                        }
                    }
                }
            }
        }
    }
}
MOTION
Frames: 8
Frame Time: 0.03333333333333333
2.0124664306640625 63.079498291015625 -53.65777587890625 122.82007833256202 -66.84107325545708 121.79182399021211 2.3067707485040505 -32.5171752927313 11.667285767876024 15.877413975013711 65.21615189917365 -28.299759491274703 4.4139062980501586e-32 6.361109362927033e-15 -7.951386703658791e-16 2.858447810423272 -38.20494219772274 -4.952679241573044 -28.241255464388818 70.69840587254869 29.232053487661037 -7.951386703658791e-16 5.517382872562698e-33 -7.951386703658791e-16 1.0610060834535653 -16.25562036909556 0.749793153751643 -2.4591389952124083 1.8720506847871527e-06 1.8396172519262523e-06 -5.6479118119676786 15.4305061182884 5.794242312461278 -53.237794201210775 34.819796487284584 103.28265479167658 -66.73368553551087 2.151409368990766e-06 8.156113993703557e-06 6.3611093629270335e-15 3.1805546814635168e-15 6.3611093629270335e-15 60.14594211740885 19.913331772245584 -100.40594768502407 53.96446921035684 -1.9505472641203915e-06 -1.5143572633984057e-06 0.0 0.0 3.1805546814635164e-15
1.8028335571289062 63.030860900878906 -53.85968017578125 121.15830479160398 -67.52928951620152 120.4183323698158 2.526054547386863 -33.917152086390274 11.037522042715752 14.465566726014323 65.95162306674119 -26.57002711521238 -3.1805546814635176e-15 6.361109362927035e-15 -1.5902773407317584e-15 3.047766648515665 -39.54443722904296 -5.379163992002163 -30.344802166770638 70.71849566887323 31.41226895851779 -7.95138670365879e-16 1.9878466759146972e-16 3.180554681463516e-15 1.113085657526344 -16.595345898146775 0.7907728337798466 -1.6307703719348858 -3.2819964294927624e-06 7.679859150379305e-07 -5.81867025220866 16.360600299794505 5.610477344500903 -53.579788265937204 35.28036734863246 102.77883197218152 -68.23789803796902 1.0830986296242957e-06 -3.09796792874972e-06 -3.180554681463516e-15 -1.7655625192200634e-31 6.361109362927032e-15 58.480997666219785 21.18598748819173 -100.7925776382478 56.288527755507985 -1.1371626582402414e-06 -1.1044168900275741e-06 0.0 0.0 0.0
1.6030654907226562 62.9365234375 -54.159088134765625 119.05845034718566 -68.61251386237099 118.60395178804069 3.1120960973995837 -35.72355323466128 10.546077090874627 12.114462156766217 66.82127965980906 -23.97351127893939 0.0 0.0 -7.951386703658792e-16 3.6123674527725 -41.39816264810033 -5.675051479006051 -33.783731471213684 70.65273736192616 34.83949421702307 -1.5902773407317584e-15 2.758691436281349e-32 -1.987846675914698e-15 1.2916406646351812 -17.028963207192643 0.785877018865346 -0.719080666968064 -3.351681181406423e-06 7.471446807173038e-07 -5.881441324534319 17.569632793262535 5.413669935676076 -53.32800142675313 35.979364100840804 102.02440999225651 -70.09911022701115 1.8532380783163176e-07 -8.781202703022747e-07 -3.1805546814635176e-15 -3.1805546814635176e-15 -8.827812596100317e-32 56.95541784691489 22.358361580739786 -101.01271071660814 58.440377863226985 -2.2218548420745463e-06 4.72611082955926e-07 0.0 0.0 0.0
1.3155975341796875 62.77031707763672 -54.608062744140625 114.93451302078867 -70.39171468963886 114.89176090796313 3.6825351629738425 -38.901475992028594 9.875262647356415 10.246982890383563 68.187854273155 -21.442722796782128 1.5902773407317582e-15 6.361109362927033e-15 -8.827812596100317e-32 4.050647980166269 -44.19041336063469 -6.36650073913717 -37.31677534731769 70.35387566529893 38.75665507767014 0.0 0.0 -7.951386703658792e-16 1.384578120908384 -17.622106562209147 0.43683395425234806 0.44352951691794196 -2.6154135692517787e-07 -4.849345285369305e-07 -5.682164156765257 18.34141018203264 5.33020484164769 -52.68711631269743 36.27798241317025 100.86256416342198 -72.33481259177205 -3.0204141274159186e-06 1.3288369846300659e-06 -3.1805546814635168e-15 0.0 0.0 54.56152572510194 23.6694071298353 -100.32616660276528 60.99148925825027 -5.941799941316192e-07 -1.526825570580717e-06 6.3611093629270335e-15 0.0 0.0
1.0069961547851562 62.59577178955078 -55.088348388671875 108.41673176733285 -72.03987823174039 108.90874723908348 4.251243845553244 -42.51886437090252 9.276329899598837 8.386975751600628 69.3707761380516 -18.9884341707633 1.5902773407317582e-15 -6.261717029131298e-15 7.951386703658792e-16 4.576519869850847 -47.49530673737652 -6.925747144889372 -40.208749181784036 69.95580672885785 41.95386945635939 -7.95138670365879e-16 -6.460501696722767e-15 7.95138670365879e-16 1.4499566339792231 -18.22882445242241 0.29062267767365935 0.9788834596631226 -1.947201257239223e-06 -7.371254704701898e-07 -5.0636346672084125 19.475486066454124 5.12092118974776 -51.5312087273327 36.789891089432494 99.55573334241461 -74.85449328737126 -3.6883354791329723e-06 2.0807632273024074e-06 6.361109362927035e-15 1.5902773407317592e-15 6.361109362927035e-15 52.57268850486893 24.36989058295459 -99.10882880576281 63.46078140323056 -3.646925197190663e-07 2.1071038178508373e-06 1.1034765745125397e-32 3.975693351829396e-16 -3.1805546814635168e-15
0.6927490234375 62.3984375 -55.520751953125 100.2742619298733 -73.26797823723078 101.41734658342783 4.657726939285647 -46.290217940275646 8.583354254853104 6.993123976361316 70.53209466100027 -17.00890360776948 4.4139062980501586e-32 -6.3611093629270335e-15 7.951386703658792e-16 4.998348975608141 -50.98559458969665 -7.510047721985606 -42.96479079698398 69.60250534988468 44.938375938009514 7.951386703658792e-16 6.4605016967227685e-15 3.9756933518293955e-16 1.448778466982912 -18.907950169775688 0.1220148684966877 1.5637312082224324 2.0429793545832703e-06 -3.0265479976580896e-07 -4.554446268759469 20.791077206343477 4.834898954514683 -50.48632869664332 37.27600049752155 98.08630122096201 -77.27959043421659 8.283922294293453e-07 6.676535704707314e-07 0.0 4.770832022195275e-15 0.0 50.49430237622378 25.139506023071775 -97.94249445061683 65.9480824831578 1.0500857253124278e-06 -1.4977223978506416e-06 6.3611093629270335e-15 1.7655625192200634e-31 3.1805546814635168e-15
0.38654327392578125 62.199378967285156 -55.91249084472656 89.58202540962851 -74.25486761423387 91.49038751987852 5.042678459618131 -50.4508890445052 7.805912650319521 5.047910415648521 71.61911936395406 -14.47457929348696 0.0 -9.93923337957349e-17 0.0 5.180313381658982 -54.78613522776764 -8.427298493969657 -45.19603544586364 69.1363880008385 47.63157244432755 -1.1927080055488186e-15 -9.939233379573487e-17 -1.5902773407317582e-15 1.3836915603334052 -19.59806577961832 0.019938081672872913 2.9198102166457724 1.5400809994742634e-06 -6.016788242341735e-07 -3.713129555852446 23.197891406612488 4.327703054951251 -49.68603529756246 37.38241191424605 96.15124686295371 -79.45939170156605 3.259849199646715e-06 2.6047637504380092e-06 -3.180554681463516e-15 -3.1805546814635168e-15 6.361109362927033e-15 48.91463686336494 25.658893212838855 -96.96986504565437 68.49018836470201 8.436106731188815e-07 -1.1361940351264922e-06 0.0 -1.5902773407317588e-15 0.0
0.0849456787109375 62.03337097167969 -56.291656494140625 75.30926782430073 -74.35125540943233 78.22404530344765 4.985277890259535 -55.49416175842928 6.822136356532556 3.760345018955905 72.8068552019633 -12.4806881146685 1.5902773407317588e-15 6.46050169672277e-15 -8.965747167914385e-32 5.761581389959052 -59.42202690004399 -8.87388098644826 -47.183351518448944 68.74871056382891 49.70222990622069 -3.975693351829397e-16 0.0 0.0 1.2462013443486033 -20.15324074379658 -0.12300778200467208 3.517766853966074 -1.7659233308433691e-06 1.0788787854184033e-06 -2.735270040651462 24.931711142446947 3.6019471269390713 -47.85175616559956 37.143790265295294 93.79931327509009 -82.18619533076458 1.2088848371757019e-06 -1.2264932352408267e-06 -3.1805546814635168e-15 1.5902773407317584e-15 4.4139062980501586e-32 47.52806955857014 25.54771344829509 -95.14686047251953 70.94532013576222 1.5914266751014784e-06 8.70700941348432e-07 4.4139062980501586e-32 1.5902773407317582e-15 -3.1805546814635164e-15
